<svg width="12" height="14" viewBox="0 0 12 14" fill="none" xmlns="http://www.w3.org/2000/svg">
<path d="M0 11.5767C0 12.9351 0.710938 13.6396 2.08203 13.6396H9.54688C10.7593 13.6396 11.4702 12.9287 11.4702 11.5767V5.01318C11.4702 3.65479 10.7529 2.9502 9.38818 2.9502H8.48047C8.44873 1.53467 7.24268 0.360352 5.73193 0.360352C4.22754 0.360352 3.01514 1.53467 2.98975 2.9502H2.08203C0.710938 2.9502 0 3.65479 0 5.01318V11.5767ZM4.18945 2.9502C4.21484 2.125 4.8623 1.46484 5.73193 1.46484C6.60791 1.46484 7.25537 2.125 7.28076 2.9502H4.18945ZM1.24414 11.4688V5.12109C1.24414 4.49902 1.56787 4.19434 2.1582 4.19434H9.31201C9.896 4.19434 10.2261 4.49902 10.2261 5.12109V11.4688C10.2261 12.0845 9.896 12.3955 9.4707 12.3955H2.1582C1.56787 12.3955 1.24414 12.0845 1.24414 11.4688Z" fill="white"/>
</svg>
