<svg width="15" height="13" viewBox="0 0 15 13" fill="none" xmlns="http://www.w3.org/2000/svg">
<path d="M5.44336 9.00122H12.2285C12.5859 9.00122 12.9023 8.74341 12.9023 8.34497C12.9023 7.95239 12.5859 7.69458 12.2285 7.69458H5.625C5.42578 7.69458 5.30273 7.55396 5.27344 7.34302L5.18555 6.75122H12.334C13.2949 6.75122 13.8223 6.177 13.9629 5.20435L14.3555 2.52661C14.3672 2.44458 14.3848 2.33325 14.3848 2.25122C14.3848 1.81763 14.0977 1.51294 13.5645 1.51294H4.44141L4.37695 1.05005C4.28906 0.452393 4.01367 0.147705 3.27539 0.147705H1.34766C0.955078 0.147705 0.615234 0.481689 0.615234 0.885986C0.615234 1.29028 0.955078 1.62427 1.34766 1.62427H2.95312L3.80859 7.46606C3.95508 8.42114 4.47656 9.00122 5.44336 9.00122ZM12.8203 2.81958L12.5156 5.09888C12.4805 5.30981 12.375 5.43872 12.1699 5.43872L5.00391 5.44458L4.62891 2.81958H12.8203ZM5.94141 12.0774C6.57422 12.0774 7.07812 11.5735 7.07812 10.9407C7.07812 10.3137 6.57422 9.80981 5.94141 9.80981C5.32031 9.80981 4.81055 10.3137 4.81055 10.9407C4.81055 11.5735 5.32031 12.0774 5.94141 12.0774ZM11.2559 12.0774C11.8828 12.0774 12.3867 11.5735 12.3867 10.9407C12.3867 10.3137 11.8828 9.80981 11.2559 9.80981C10.6289 9.80981 10.1191 10.3137 10.1191 10.9407C10.1191 11.5735 10.6289 12.0774 11.2559 12.0774Z" fill="white"/>
</svg>
