<svg width="41" height="41" viewBox="0 0 41 41" fill="none" xmlns="http://www.w3.org/2000/svg">
<g filter="url(#filter0_d_55:212)">
<path d="M20.1981 27.8906C26.2824 27.8906 31.32 22.8421 31.32 16.7687C31.32 10.6844 26.2715 5.64679 20.1872 5.64679C14.1137 5.64679 9.07617 10.6844 9.07617 16.7687C9.07617 22.8421 14.1247 27.8906 20.1981 27.8906ZM20.1981 26.037C15.0515 26.037 10.9407 21.9153 10.9407 16.7687C10.9407 11.6221 15.0406 7.50044 20.1872 7.50044C25.3338 7.50044 29.4554 11.6221 29.4664 16.7687C29.4773 21.9153 25.3447 26.037 20.1981 26.037ZM16.469 21.381C16.7198 21.381 16.9378 21.2829 17.1014 21.1084L20.1872 18.0117L23.2948 21.1084C23.4583 21.272 23.6655 21.381 23.9163 21.381C24.3961 21.381 24.7886 20.9885 24.7886 20.4978C24.7886 20.247 24.7014 20.0508 24.5269 19.8763L21.4302 16.7796L24.5378 13.6611C24.7232 13.4757 24.7995 13.2904 24.7995 13.0505C24.7995 12.5707 24.407 12.1782 23.9272 12.1782C23.6982 12.1782 23.5129 12.2654 23.3275 12.4508L20.1872 15.5584L17.0796 12.4617C16.916 12.2872 16.7198 12.2 16.469 12.2C15.9892 12.2 15.5967 12.5816 15.5967 13.0614C15.5967 13.3013 15.6948 13.5085 15.8584 13.672L18.9551 16.7796L15.8584 19.8872C15.6948 20.0508 15.5967 20.2579 15.5967 20.4978C15.5967 20.9885 15.9892 21.381 16.469 21.381Z" fill="white" fill-opacity="0.7" shape-rendering="crispEdges"/>
</g>
<defs>
<filter id="filter0_d_55:212" x="0.0761719" y="0.64679" width="40.2441" height="40.2438" filterUnits="userSpaceOnUse" color-interpolation-filters="sRGB">
<feFlood flood-opacity="0" result="BackgroundImageFix"/>
<feColorMatrix in="SourceAlpha" type="matrix" values="0 0 0 0 0 0 0 0 0 0 0 0 0 0 0 0 0 0 127 0" result="hardAlpha"/>
<feOffset dy="4"/>
<feGaussianBlur stdDeviation="4.5"/>
<feComposite in2="hardAlpha" operator="out"/>
<feColorMatrix type="matrix" values="0 0 0 0 0 0 0 0 0 0 0 0 0 0 0 0 0 0 0.61 0"/>
<feBlend mode="normal" in2="BackgroundImageFix" result="effect1_dropShadow_55:212"/>
<feBlend mode="normal" in="SourceGraphic" in2="effect1_dropShadow_55:212" result="shape"/>
</filter>
</defs>
</svg>
